<svg xmlns="http://www.w3.org/2000/svg" width="678" height="68" viewBox="0 0 678 68" xmlns:xlink="http://www.w3.org/1999/xlink">
  <defs>
    <polygon id="a" points="0 67.999 0 0 678 0 678 67.999 0 67.999"/>
  </defs>
  <g fill="none" fill-rule="evenodd">
    <mask id="b" fill="white">
      <use xlink:href="#a"/>
    </mask>
    <path fill="#FFFB01" d="M463.4697,31.5133 C463.4277,32.0763 463.3867,32.6393 463.3447,33.2023 C467.1577,33.3783 470.9707,33.5753 474.7847,33.7273 C484.2227,34.1053 493.6597,34.5053 503.1007,34.7563 C503.9557,34.7793 504.8367,33.7863 505.7057,33.2653 C504.9487,32.5883 504.2617,31.8013 503.4167,31.2593 C501.9427,30.3143 500.1107,29.7893 498.8897,28.6113 C495.4897,25.3263 487.4127,25.7753 484.6007,29.6123 C482.7707,32.1083 478.4847,32.4603 476.9427,29.9273 C474.8287,26.4533 471.8917,26.8223 468.0077,26.6393 C470.0257,28.0883 471.1967,28.9293 472.3657,29.7703 C470.8667,30.3513 469.4077,31.1373 467.8547,31.4523 C466.4477,31.7403 464.9357,31.5133 463.4697,31.5133 M242.9997,67.9993 L204.9997,67.9993 C205.2817,62.7643 201.1717,61.5743 197.5987,61.2843 C193.5767,60.9603 190.7637,63.3603 190.9997,67.9993 L186.9997,67.9993 C180.9727,67.4113 174.9397,66.2823 168.9207,66.3603 C159.2757,66.4863 149.6397,67.4113 139.9997,67.9993 L138.9997,67.9993 C138.6947,65.0143 137.0857,64.0683 134.0677,63.9003 C120.6657,63.1563 107.3827,61.2913 93.8257,62.2223 C84.1087,62.8883 74.2517,61.4423 64.4527,61.0543 C60.3557,60.8923 55.8177,62.0123 54.6577,55.8013 C51.6517,59.7723 48.0677,60.1603 45.1567,58.1163 C40.0447,54.5263 34.8897,50.8863 29.3537,48.0463 C24.5247,45.5713 19.9747,43.4493 17.7527,37.9063 C16.6167,35.0733 14.6347,32.0633 12.1807,30.3733 C5.9157,26.0603 3.7817,20.4503 4.8917,13.2213 C4.9237,13.0053 4.5917,12.7343 4.4397,12.5013 C2.9407,12.6703 1.4707,12.8343 -0.0003,12.9993 L-0.0003,4.9993 C4.4247,6.0343 8.8497,7.0683 12.0177,7.8093 C13.5737,4.7583 14.7867,2.3793 15.9997,-0.0007 L24.9997,-0.0007 C35.1577,1.3163 45.2817,3.1263 55.4807,3.8343 C71.7717,4.9643 88.1117,5.4023 104.4347,6.0333 C107.8487,6.1643 111.6217,8.0143 114.5177,4.3023 C114.7997,3.9403 116.4907,4.6083 117.4967,4.9013 C118.3227,5.1413 119.0947,5.7993 119.9047,5.8233 C130.7067,6.1253 141.5167,6.2363 152.3157,6.6433 C157.6257,6.8433 164.1577,9.6933 167.9127,7.5133 C172.9647,4.5813 176.9697,6.8223 181.3627,6.5003 C183.9857,6.3093 186.6597,7.0183 189.3177,7.0763 C210.9687,7.5573 232.6227,7.9193 254.2727,8.4653 C259.0617,8.5853 264.0617,10.3853 268.5577,9.4513 C274.1987,8.2803 278.5727,9.2613 281.7107,11.9833 C286.9107,10.8303 291.1397,9.4653 295.4587,9.0473 C300.6757,8.5423 305.9707,8.8333 311.2327,8.8063 C311.5327,8.8053 311.8327,9.0443 312.2927,9.2393 C312.6207,10.3643 312.9787,11.5893 313.3027,12.7013 C317.3807,12.3943 321.2057,12.0693 325.0377,11.8573 C325.6107,11.8263 326.4457,12.1643 326.7637,12.6123 C329.5437,16.5273 333.8437,14.1063 337.3117,15.1523 C338.9717,15.6523 340.9067,15.2383 343.4087,15.2383 C343.4917,14.9063 343.8687,13.3983 344.2297,11.9573 L355.2497,11.9573 C355.0657,13.4523 354.9227,14.6043 354.7927,15.6593 C357.5657,15.2453 360.0907,14.6073 362.6197,14.5893 C364.1937,14.5783 365.7847,15.9603 367.3487,15.9213 C370.7507,15.8353 374.0157,14.8743 377.2797,17.2533 C378.7467,18.3243 381.2827,17.9283 383.2587,18.1883 C383.8577,15.6483 384.3057,13.7433 384.7547,11.8393 C385.1177,11.8603 385.4817,11.8813 385.8447,11.9023 C386.3837,13.2933 386.9227,14.6853 387.5427,16.2853 C389.4327,15.7183 391.0697,15.2273 393.6957,14.4393 C392.0157,13.9173 391.3367,13.8353 390.8157,13.5053 C390.3607,13.2163 390.0807,12.6483 389.6997,12.1723 C395.9437,8.2073 406.9257,9.5003 409.2897,14.3563 C412.5887,13.9353 415.8507,13.5193 419.8137,13.0133 C419.8597,13.0393 420.8367,13.9803 421.9467,14.1783 C424.1737,14.5763 426.4767,14.7303 428.7427,14.7003 C434.2647,14.6233 440.1437,15.5253 445.2127,13.9253 C451.6567,11.8913 455.5677,11.7183 459.1967,16.6113 C463.1767,10.4053 463.1747,10.4403 471.5007,11.0503 C475.1537,11.3183 479.0487,12.2853 482.4287,11.3973 C488.8717,9.7013 494.0107,10.0853 497.5777,17.2933 C498.0677,15.0473 498.3667,13.6693 498.7397,11.9603 C500.2387,12.4753 501.4447,12.8893 502.6647,13.3083 C502.1077,14.9663 501.6237,16.4013 501.4507,16.9163 C507.5887,16.3333 513.7277,15.7503 520.7047,15.0883 C524.2257,9.9393 527.0757,9.8963 533.3637,15.9753 C538.0827,15.4313 543.2347,15.8933 547.4217,14.1013 C553.6747,11.4253 559.6477,11.7053 565.9547,12.5903 C568.5667,12.9563 571.4237,13.4753 573.8497,12.7913 C577.2997,11.8193 579.7117,12.1403 582.3587,14.7133 C583.8477,16.1603 587.5927,17.7573 588.3507,17.0803 C592.8587,13.0563 596.4517,14.4113 600.4077,18.2113 C601.3937,15.8613 600.9047,11.3343 605.5857,13.9903 C605.8977,15.3903 606.2017,16.7563 606.5667,18.3953 C608.1777,17.9893 609.6197,17.9533 610.6877,17.3033 C616.5537,13.7273 622.7367,13.4113 629.2697,14.8783 C631.1767,15.3073 633.2547,14.9513 635.2537,14.9963 C636.2447,15.0183 637.9017,14.8053 638.1227,15.2553 C640.4407,19.9713 644.3177,17.2883 647.5417,17.3463 C650.1737,17.3933 652.8117,17.0723 655.3227,16.9203 C656.0157,18.5873 656.5627,19.9013 657.1087,21.2143 C657.6717,17.1203 659.2457,15.9813 663.0047,17.3593 C664.3527,17.8533 666.1727,17.1583 667.7567,16.8853 C671.1787,16.2983 674.5867,15.6333 677.9997,14.9993 L677.9997,22.9993 C673.9487,23.2683 669.8987,23.6473 665.8417,23.7603 C663.5697,23.8243 662.0607,23.3793 662.2907,26.9783 C662.5957,31.7413 659.9497,33.2663 654.4997,32.7683 C654.8267,27.1373 653.9967,26.4403 648.4977,27.3153 C640.5147,28.5863 632.7137,29.9623 624.3617,28.6433 C618.1097,27.6563 610.7867,26.2763 605.3087,32.5803 C604.4017,33.6233 600.9567,32.7073 598.7617,32.2913 C597.4687,32.0463 596.3257,31.0023 595.1157,30.3183 C594.8877,32.0173 594.6577,33.7153 594.4157,35.4033 C582.6917,31.6323 568.8787,31.1493 562.3387,34.8743 L585.8557,34.8743 C584.8057,38.4173 583.9177,41.4123 582.8917,44.8793 C584.6897,45.6783 586.4997,46.4823 588.7097,47.4633 C588.9547,44.0233 589.1407,41.4103 589.3267,38.7973 C589.8017,39.0503 590.2777,39.3033 590.7517,39.5563 C591.9337,38.1343 593.1147,36.7113 594.2947,35.2893 C596.5997,34.5543 598.5487,34.1963 598.7717,37.6973 C598.8137,38.3593 600.5927,38.9093 602.1537,39.8703 C601.8077,37.6233 601.6337,36.4973 601.5627,36.0343 C607.1527,35.7713 612.3157,35.5273 617.4777,35.2833 C617.5947,35.8613 617.7107,36.4393 617.8277,37.0173 C615.6437,37.5353 613.4577,38.0553 611.0097,38.6363 C611.3367,40.0143 611.6597,41.3813 611.8507,42.1813 C609.9457,43.9113 607.7677,45.0383 606.9997,46.7843 C605.7967,49.5263 603.8937,50.3823 601.5827,49.5853 C599.8907,49.0013 598.5247,47.3053 597.1797,45.9413 C596.4487,45.2013 596.0687,44.1173 595.5297,43.1873 C595.1687,43.3683 594.8077,43.5493 594.4467,43.7303 C594.9817,45.4713 595.5167,47.2133 596.5097,50.4493 C591.4207,49.5333 587.0387,49.4693 583.3167,47.8713 C579.5137,46.2393 577.8437,47.0403 576.7127,50.0203 C577.8237,51.2473 578.7057,52.2213 579.5877,53.1953 C579.3427,53.5783 579.0967,53.9623 578.8517,54.3463 C575.2957,53.8103 571.7407,53.2743 568.1867,52.7393 C567.8497,52.2533 567.5117,51.7683 567.1737,51.2833 C571.5637,51.4323 573.4407,50.0863 571.6907,46.4003 C565.9997,52.6853 559.9927,45.3333 554.0727,47.2313 C551.8507,51.6693 556.5757,50.5213 558.2537,51.4373 C553.3587,56.5193 548.0487,58.4643 541.6017,55.3063 C540.9467,54.9853 539.8337,55.5693 538.9417,55.7703 C536.1317,56.4043 533.3557,57.2613 530.5137,57.6553 C525.3217,58.3743 528.2387,53.0943 525.3917,50.7673 C523.2947,52.1793 521.0097,53.7183 518.4017,55.4753 C513.2647,50.8123 511.5117,61.3493 506.2927,58.7643 C505.9357,57.4893 505.5597,56.1463 505.1157,54.5613 C502.8297,54.9683 500.9127,55.3083 498.7417,55.6953 C498.3847,54.2113 498.0497,52.8253 497.9997,52.6203 C495.8097,52.8933 493.0777,53.9403 492.4407,53.1953 C488.9487,49.1123 485.2637,51.7593 483.3537,53.7583 C480.5067,56.7403 477.9927,56.2243 474.9237,55.4173 C474.3207,55.2593 473.6857,55.2223 472.8907,55.1033 C472.5887,56.5363 472.3287,57.7703 471.9537,59.5543 C469.7247,58.9063 467.8237,58.3523 466.2927,57.9083 C466.7597,55.3943 467.1087,53.5103 467.4577,51.6273 C466.9717,51.1933 466.4847,50.7583 465.9977,50.3243 C465.0077,57.3253 460.7047,59.1493 455.6057,57.3193 C450.5417,55.5013 446.3327,55.9193 441.9597,58.6943 C441.2827,59.1233 439.6457,58.8233 438.9207,58.2583 C435.9447,55.9383 433.1487,53.3863 430.2217,50.8643 C431.4397,46.9113 431.4397,46.9113 429.8757,46.6853 C428.0747,50.5923 426.4547,54.1113 424.5337,58.2793 C422.6267,56.4703 421.7637,55.6533 420.5957,54.5453 C420.0877,56.2933 419.7147,57.5763 419.4447,58.5063 C415.2047,58.5063 411.2787,57.8523 407.6767,58.6553 C401.8057,59.9643 395.8007,59.4313 389.9427,60.0243 C379.4427,61.0863 368.7247,60.2393 358.2037,62.4463 C356.0337,62.9013 353.6337,62.1763 351.3367,62.1333 C349.8967,62.1073 348.4487,62.3033 347.0097,62.4593 C343.0527,62.8883 339.0987,63.3493 334.6627,63.8533 C336.1107,57.7523 335.0757,55.5753 331.2467,55.5373 C332.2047,56.8463 333.0057,57.9403 334.3657,59.7953 C330.8357,60.7713 327.5927,62.6363 324.7457,62.1553 C322.3337,61.7473 320.3817,58.6263 318.1197,56.6133 C317.7667,57.7713 317.3077,59.2783 316.8087,60.9133 C310.5617,60.7903 303.8357,63.2513 299.6767,55.4663 C298.3577,57.7623 297.8577,59.6063 296.6547,60.4733 C295.2427,61.4903 293.2207,61.6593 291.4627,62.1953 C290.3147,58.2243 287.8867,60.7023 286.0107,61.2263 C283.1857,62.0153 280.4417,63.0913 277.0417,64.2593 C277.2177,62.0353 277.3397,60.4903 277.4667,58.8863 C274.8967,58.8863 272.2277,58.6933 269.6027,58.9453 C267.3437,59.1623 265.1347,59.8943 262.9027,60.3903 C262.0407,60.5813 260.6977,60.4643 260.3897,60.9773 C258.4367,64.2293 256.1777,62.4463 253.9397,61.5943 C252.8327,61.1733 251.5157,60.1633 250.6447,60.4573 C246.0897,61.9963 241.6327,64.1173 239.0037,60.5773 C235.5167,61.3233 233.3797,62.0983 231.2177,62.1783 C225.9847,62.3713 220.7397,62.2413 215.4987,62.2413 C215.4987,62.9723 215.4977,63.7033 215.4977,64.4353 C223.5847,64.9163 231.6767,65.3243 239.7507,65.9643 C240.8807,66.0543 241.9187,67.2933 242.9997,67.9993" mask="url(#b)"/>
  </g>
</svg>
